{
	"asset":{
		"generator":"Khronos glTF Blender I/O v4.2.70",
		"version":"2.0"
	},
	"extensionsUsed":[
		"KHR_materials_clearcoat",
		"KHR_materials_emissive_strength",
		"KHR_materials_specular",
		"KHR_materials_anisotropy",
		"KHR_materials_ior"
	],
	"scene":0,
	"scenes":[
		{
			"name":"Scene",
			"nodes":[
				0,
				1,
				4
			]
		}
	],
	"nodes":[
		{
			"mesh":0,
			"name":"Cylinder",
			"rotation":[
				0,
				0,
				0.7071068286895752,
				0.7071068286895752
			],
			"scale":[
				2.5,
				0.30000001192092896,
				2.5
			],
			"translation":[
				0.6333656907081604,
				0.04941266030073166,
				0
			]
		},
		{
			"mesh":1,
			"name":"Torus",
			"rotation":[
				0,
				0,
				-0.7071068286895752,
				0.7071068286895752
			],
			"scale":[
				2.5,
				2,
				2.5
			],
			"translation":[
				0.6441471576690674,
				0,
				0
			]
		},
		{
			"mesh":2,
			"name":"Plane",
			"rotation":[
				-0.7071067690849304,
				-2.107342389479072e-08,
				0.7071067690849304,
				2.107342389479072e-08
			],
			"translation":[
				1.7771288440826538e-08,
				0.27434685826301575,
				-2.5331974029541016e-07
			]
		},
		{
			"children":[
				2
			],
			"name":"Bone",
			"rotation":[
				-0.5,
				0.5,
				0.5,
				0.5
			],
			"translation":[
				-1.8829045295715332,
				-0.055030107498168945,
				-1.3034782409667969
			]
		},
		{
			"children":[
				3
			],
			"name":"Armature",
			"translation":[
				2.1572513580322266,
				0.055030107498168945,
				1.3034782409667969
			]
		}
	],
	"animations":[
		{
			"channels":[
				{
					"sampler":0,
					"target":{
						"node":3,
						"path":"translation"
					}
				},
				{
					"sampler":1,
					"target":{
						"node":3,
						"path":"rotation"
					}
				},
				{
					"sampler":2,
					"target":{
						"node":3,
						"path":"scale"
					}
				}
			],
			"name":"Armature",
			"samplers":[
				{
					"input":15,
					"interpolation":"STEP",
					"output":16
				},
				{
					"input":17,
					"interpolation":"LINEAR",
					"output":18
				},
				{
					"input":15,
					"interpolation":"STEP",
					"output":19
				}
			]
		},
		{
			"channels":[
				{
					"sampler":0,
					"target":{
						"node":3,
						"path":"translation"
					}
				},
				{
					"sampler":1,
					"target":{
						"node":3,
						"path":"rotation"
					}
				},
				{
					"sampler":2,
					"target":{
						"node":3,
						"path":"scale"
					}
				}
			],
			"name":"Armature.001",
			"samplers":[
				{
					"input":15,
					"interpolation":"STEP",
					"output":20
				},
				{
					"input":17,
					"interpolation":"LINEAR",
					"output":21
				},
				{
					"input":15,
					"interpolation":"STEP",
					"output":22
				}
			]
		}
	],
	"materials":[
		{
			"doubleSided":true,
			"emissiveFactor":[
				1,
				1,
				1
			],
			"extensions":{
				"KHR_materials_emissive_strength":{
					"emissiveStrength":44.209999084472656
				}
			},
			"name":"Procedural Sci-fi Metal Drone"
		},
		{
			"doubleSided":true,
			"extensions":{
				"KHR_materials_clearcoat":{
					"clearcoatRoughnessFactor":0.1600000262260437
				},
				"KHR_materials_specular":{
					"specularColorFactor":[
						0.669875979423523,
						0.2532126009464264,
						0.143009752035141
					]
				},
				"KHR_materials_ior":{
					"ior":1.4500000476837158
				}
			},
			"name":"Plastic pattern"
		},
		{
			"doubleSided":true,
			"extensions":{
				"KHR_materials_clearcoat":{
					"clearcoatFactor":0.09090909361839294,
					"clearcoatRoughnessFactor":0.11818181723356247
				},
				"KHR_materials_anisotropy":{
					"anisotropyStrength":0.831818163394928,
					"anisotropyRotation":1.8849556670552816
				}
			},
			"name":"Brushed Aluminum 2",
			"pbrMetallicRoughness":{
				"baseColorFactor":[
					0.25420424342155457,
					0.25420424342155457,
					0.25420424342155457,
					1
				]
			}
		}
	],
	"meshes":[
		{
			"name":"Cylinder.001",
			"primitives":[
				{
					"attributes":{
						"POSITION":0,
						"NORMAL":1,
						"TEXCOORD_0":2,
						"TEXCOORD_1":3
					},
					"indices":4,
					"material":0
				}
			]
		},
		{
			"name":"Torus",
			"primitives":[
				{
					"attributes":{
						"POSITION":5,
						"NORMAL":6,
						"TEXCOORD_0":7,
						"TEXCOORD_1":8
					},
					"indices":9,
					"material":1
				}
			]
		},
		{
			"name":"Plane",
			"primitives":[
				{
					"attributes":{
						"POSITION":10,
						"NORMAL":11,
						"TEXCOORD_0":12,
						"TEXCOORD_1":13
					},
					"indices":14,
					"material":2
				}
			]
		}
	],
	"skins":[
		{
			"inverseBindMatrices":23,
			"joints":[
				3
			],
			"name":"Armature"
		}
	],
	"accessors":[
		{
			"bufferView":0,
			"componentType":5126,
			"count":192,
			"max":[
				1,
				1,
				1
			],
			"min":[
				-1,
				-1,
				-1
			],
			"type":"VEC3"
		},
		{
			"bufferView":1,
			"componentType":5126,
			"count":192,
			"type":"VEC3"
		},
		{
			"bufferView":2,
			"componentType":5126,
			"count":192,
			"type":"VEC2"
		},
		{
			"bufferView":3,
			"componentType":5126,
			"count":192,
			"type":"VEC2"
		},
		{
			"bufferView":4,
			"componentType":5123,
			"count":372,
			"type":"SCALAR"
		},
		{
			"bufferView":5,
			"componentType":5126,
			"count":2304,
			"max":[
				1.25,
				0.25,
				1.25
			],
			"min":[
				-1.25,
				-0.25,
				-1.25
			],
			"type":"VEC3"
		},
		{
			"bufferView":6,
			"componentType":5126,
			"count":2304,
			"type":"VEC3"
		},
		{
			"bufferView":7,
			"componentType":5126,
			"count":2304,
			"type":"VEC2"
		},
		{
			"bufferView":8,
			"componentType":5126,
			"count":2304,
			"type":"VEC2"
		},
		{
			"bufferView":9,
			"componentType":5123,
			"count":3456,
			"type":"SCALAR"
		},
		{
			"bufferView":10,
			"componentType":5126,
			"count":248,
			"max":[
				0.5062154531478882,
				0.8916599154472351,
				1.2000000476837158
			],
			"min":[
				-0.5937846899032593,
				-4.02584171295166,
				-1.2000000476837158
			],
			"type":"VEC3"
		},
		{
			"bufferView":11,
			"componentType":5126,
			"count":248,
			"type":"VEC3"
		},
		{
			"bufferView":12,
			"componentType":5126,
			"count":248,
			"type":"VEC2"
		},
		{
			"bufferView":13,
			"componentType":5126,
			"count":248,
			"type":"VEC2"
		},
		{
			"bufferView":14,
			"componentType":5123,
			"count":456,
			"type":"SCALAR"
		},
		{
			"bufferView":15,
			"componentType":5126,
			"count":2,
			"max":[
				0.6666666666666666
			],
			"min":[
				0.016666666666666666
			],
			"type":"SCALAR"
		},
		{
			"bufferView":16,
			"componentType":5126,
			"count":2,
			"type":"VEC3"
		},
		{
			"bufferView":17,
			"componentType":5126,
			"count":40,
			"max":[
				0.6666666666666666
			],
			"min":[
				0.016666666666666666
			],
			"type":"SCALAR"
		},
		{
			"bufferView":18,
			"componentType":5126,
			"count":40,
			"type":"VEC4"
		},
		{
			"bufferView":19,
			"componentType":5126,
			"count":2,
			"type":"VEC3"
		},
		{
			"bufferView":20,
			"componentType":5126,
			"count":2,
			"type":"VEC3"
		},
		{
			"bufferView":21,
			"componentType":5126,
			"count":40,
			"type":"VEC4"
		},
		{
			"bufferView":22,
			"componentType":5126,
			"count":2,
			"type":"VEC3"
		},
		{
			"bufferView":23,
			"componentType":5126,
			"count":1,
			"type":"MAT4"
		}
	],
	"bufferViews":[
		{
			"buffer":0,
			"byteLength":2304,
			"byteOffset":0,
			"target":34962
		},
		{
			"buffer":0,
			"byteLength":2304,
			"byteOffset":2304,
			"target":34962
		},
		{
			"buffer":0,
			"byteLength":1536,
			"byteOffset":4608,
			"target":34962
		},
		{
			"buffer":0,
			"byteLength":1536,
			"byteOffset":6144,
			"target":34962
		},
		{
			"buffer":0,
			"byteLength":744,
			"byteOffset":7680,
			"target":34963
		},
		{
			"buffer":0,
			"byteLength":27648,
			"byteOffset":8424,
			"target":34962
		},
		{
			"buffer":0,
			"byteLength":27648,
			"byteOffset":36072,
			"target":34962
		},
		{
			"buffer":0,
			"byteLength":18432,
			"byteOffset":63720,
			"target":34962
		},
		{
			"buffer":0,
			"byteLength":18432,
			"byteOffset":82152,
			"target":34962
		},
		{
			"buffer":0,
			"byteLength":6912,
			"byteOffset":100584,
			"target":34963
		},
		{
			"buffer":0,
			"byteLength":2976,
			"byteOffset":107496,
			"target":34962
		},
		{
			"buffer":0,
			"byteLength":2976,
			"byteOffset":110472,
			"target":34962
		},
		{
			"buffer":0,
			"byteLength":1984,
			"byteOffset":113448,
			"target":34962
		},
		{
			"buffer":0,
			"byteLength":1984,
			"byteOffset":115432,
			"target":34962
		},
		{
			"buffer":0,
			"byteLength":912,
			"byteOffset":117416,
			"target":34963
		},
		{
			"buffer":0,
			"byteLength":8,
			"byteOffset":118328
		},
		{
			"buffer":0,
			"byteLength":24,
			"byteOffset":118336
		},
		{
			"buffer":0,
			"byteLength":160,
			"byteOffset":118360
		},
		{
			"buffer":0,
			"byteLength":640,
			"byteOffset":118520
		},
		{
			"buffer":0,
			"byteLength":24,
			"byteOffset":119160
		},
		{
			"buffer":0,
			"byteLength":24,
			"byteOffset":119184
		},
		{
			"buffer":0,
			"byteLength":640,
			"byteOffset":119208
		},
		{
			"buffer":0,
			"byteLength":24,
			"byteOffset":119848
		},
		{
			"buffer":0,
			"byteLength":64,
			"byteOffset":119872
		}
	],
	"buffers":[
		{
			"byteLength":119936,
			"uri":"switch2.bin"
		}
	]
}
