{
	"asset":{
		"generator":"Khronos glTF Blender I/O v4.2.70",
		"version":"2.0"
	},
	"extensionsUsed":[
		"KHR_materials_clearcoat",
		"KHR_materials_emissive_strength",
		"KHR_materials_specular",
		"KHR_materials_anisotropy",
		"KHR_materials_ior"
	],
	"scene":0,
	"scenes":[
		{
			"name":"Scene",
			"nodes":[
				0,
				1,
				2,
				3
			]
		}
	],
	"nodes":[
		{
			"mesh":0,
			"name":"Cylinder",
			"scale":[
				2,
				0.10000000149011612,
				2
			],
			"translation":[
				0,
				0.11590614169836044,
				0
			]
		},
		{
			"mesh":1,
			"name":"Torus",
			"translation":[
				0,
				0.36244267225265503,
				0
			]
		},
		{
			"mesh":2,
			"name":"Sphere",
			"translation":[
				0,
				0.21677374839782715,
				0
			]
		},
		{
			"mesh":3,
			"name":"Cube",
			"scale":[
				0.3783355951309204,
				0.10002034157514572,
				0.3783355951309204
			],
			"translation":[
				0,
				0.29884427785873413,
				0
			]
		}
	],
	"materials":[
		{
			"doubleSided":true,
			"extensions":{
				"KHR_materials_clearcoat":{
					"clearcoatFactor":0.0727272778749466,
					"clearcoatRoughnessFactor":0.10454545170068741
				},
				"KHR_materials_specular":{
					"specularColorFactor":[
						1.3454545736312866,
						1.3454545736312866,
						1.3454545736312866
					]
				},
				"KHR_materials_anisotropy":{
					"anisotropyStrength":0.831818163394928
				},
				"KHR_materials_ior":{
					"ior":1.4500000476837158
				}
			},
			"name":"Brushed  Dark Metal",
			"pbrMetallicRoughness":{
				"baseColorFactor":[
					0.03314012661576271,
					0.03314012661576271,
					0.03314012661576271,
					1
				]
			}
		},
		{
			"doubleSided":true,
			"name":"Brass old metal",
			"normalTexture":{
				"index":0,
				"scale":0.30000001192092896,
				"texCoord":1
			},
			"pbrMetallicRoughness":{
				"baseColorTexture":{
					"index":1,
					"texCoord":1
				},
				"metallicRoughnessTexture":{
					"index":2,
					"texCoord":1
				}
			}
		},
		{
			"doubleSided":true,
			"emissiveFactor":[
				0.06566397845745087,
				0.004389549605548382,
				0.004691127222031355
			],
			"name":"Prismatica Multicolor Glass Crystal",
			"pbrMetallicRoughness":{
				"baseColorFactor":[
					0,
					0,
					0,
					1
				]
			}
		},
		{
			"doubleSided":true,
			"emissiveFactor":[
				0.14950020458332075,
				1,
				0.08248897649445798
			],
			"extensions":{
				"KHR_materials_emissive_strength":{
					"emissiveStrength":6.656583762332502
				}
			},
			"name":"led element",
			"pbrMetallicRoughness":{
				"baseColorFactor":[
					0,
					0,
					0,
					1
				]
			}
		}
	],
	"meshes":[
		{
			"name":"Cylinder",
			"primitives":[
				{
					"attributes":{
						"POSITION":0,
						"NORMAL":1,
						"TEXCOORD_0":2,
						"TEXCOORD_1":3
					},
					"indices":4,
					"material":0
				}
			]
		},
		{
			"name":"Torus",
			"primitives":[
				{
					"attributes":{
						"POSITION":5,
						"NORMAL":6,
						"TEXCOORD_0":7,
						"TEXCOORD_1":8
					},
					"indices":9,
					"material":1
				}
			]
		},
		{
			"name":"Sphere",
			"primitives":[
				{
					"attributes":{
						"POSITION":10,
						"NORMAL":11,
						"TEXCOORD_0":12,
						"TEXCOORD_1":13
					},
					"indices":14,
					"material":2
				}
			]
		},
		{
			"name":"Cube.001",
			"primitives":[
				{
					"attributes":{
						"POSITION":15,
						"NORMAL":16,
						"TEXCOORD_0":17
					},
					"indices":18,
					"material":3
				}
			]
		}
	],
	"textures":[
		{
			"sampler":0,
			"source":0
		},
		{
			"sampler":0,
			"source":1
		},
		{
			"sampler":0,
			"source":2
		}
	],
	"images":[
		{
			"mimeType":"image/jpeg",
			"name":"Metal07_normal_xtm",
			"uri":"Metal07_normal_xtm.jpg"
		},
		{
			"mimeType":"image/jpeg",
			"name":"Metal07_diffuse_xtm",
			"uri":"Metal07_diffuse_xtm.jpg"
		},
		{
			"mimeType":"image/png",
			"name":"Metal07_metal_xtm-Metal07_roughness_xtm",
			"uri":"Metal07_metal_xtm-Metal07_roughness_xtm.png"
		}
	],
	"accessors":[
		{
			"bufferView":0,
			"componentType":5126,
			"count":134,
			"max":[
				1,
				1,
				1
			],
			"min":[
				-1,
				-1,
				-1
			],
			"type":"VEC3"
		},
		{
			"bufferView":1,
			"componentType":5126,
			"count":134,
			"type":"VEC3"
		},
		{
			"bufferView":2,
			"componentType":5126,
			"count":134,
			"type":"VEC2"
		},
		{
			"bufferView":3,
			"componentType":5126,
			"count":134,
			"type":"VEC2"
		},
		{
			"bufferView":4,
			"componentType":5123,
			"count":372,
			"type":"SCALAR"
		},
		{
			"bufferView":5,
			"componentType":5126,
			"count":876,
			"max":[
				1.9849905967712402,
				0.030164621770381927,
				1.9849903583526611
			],
			"min":[
				-1.984990119934082,
				-0.20491135120391846,
				-1.9849903583526611
			],
			"type":"VEC3"
		},
		{
			"bufferView":6,
			"componentType":5126,
			"count":876,
			"type":"VEC3"
		},
		{
			"bufferView":7,
			"componentType":5126,
			"count":876,
			"type":"VEC2"
		},
		{
			"bufferView":8,
			"componentType":5126,
			"count":876,
			"type":"VEC2"
		},
		{
			"bufferView":9,
			"componentType":5123,
			"count":3456,
			"type":"SCALAR"
		},
		{
			"bufferView":10,
			"componentType":5126,
			"count":353,
			"max":[
				1.7409334182739258,
				1.631992220878601,
				1.7409329414367676
			],
			"min":[
				-1.7409324645996094,
				-0.10894173383712769,
				-1.740933895111084
			],
			"type":"VEC3"
		},
		{
			"bufferView":11,
			"componentType":5126,
			"count":353,
			"type":"VEC3"
		},
		{
			"bufferView":12,
			"componentType":5126,
			"count":353,
			"type":"VEC2"
		},
		{
			"bufferView":13,
			"componentType":5126,
			"count":353,
			"type":"VEC2"
		},
		{
			"bufferView":14,
			"componentType":5123,
			"count":1440,
			"type":"SCALAR"
		},
		{
			"bufferView":15,
			"componentType":5126,
			"count":24,
			"max":[
				1,
				1,
				1
			],
			"min":[
				-1,
				-1,
				-1
			],
			"type":"VEC3"
		},
		{
			"bufferView":16,
			"componentType":5126,
			"count":24,
			"type":"VEC3"
		},
		{
			"bufferView":17,
			"componentType":5126,
			"count":24,
			"type":"VEC2"
		},
		{
			"bufferView":18,
			"componentType":5123,
			"count":36,
			"type":"SCALAR"
		}
	],
	"bufferViews":[
		{
			"buffer":0,
			"byteLength":1608,
			"byteOffset":0,
			"target":34962
		},
		{
			"buffer":0,
			"byteLength":1608,
			"byteOffset":1608,
			"target":34962
		},
		{
			"buffer":0,
			"byteLength":1072,
			"byteOffset":3216,
			"target":34962
		},
		{
			"buffer":0,
			"byteLength":1072,
			"byteOffset":4288,
			"target":34962
		},
		{
			"buffer":0,
			"byteLength":744,
			"byteOffset":5360,
			"target":34963
		},
		{
			"buffer":0,
			"byteLength":10512,
			"byteOffset":6104,
			"target":34962
		},
		{
			"buffer":0,
			"byteLength":10512,
			"byteOffset":16616,
			"target":34962
		},
		{
			"buffer":0,
			"byteLength":7008,
			"byteOffset":27128,
			"target":34962
		},
		{
			"buffer":0,
			"byteLength":7008,
			"byteOffset":34136,
			"target":34962
		},
		{
			"buffer":0,
			"byteLength":6912,
			"byteOffset":41144,
			"target":34963
		},
		{
			"buffer":0,
			"byteLength":4236,
			"byteOffset":48056,
			"target":34962
		},
		{
			"buffer":0,
			"byteLength":4236,
			"byteOffset":52292,
			"target":34962
		},
		{
			"buffer":0,
			"byteLength":2824,
			"byteOffset":56528,
			"target":34962
		},
		{
			"buffer":0,
			"byteLength":2824,
			"byteOffset":59352,
			"target":34962
		},
		{
			"buffer":0,
			"byteLength":2880,
			"byteOffset":62176,
			"target":34963
		},
		{
			"buffer":0,
			"byteLength":288,
			"byteOffset":65056,
			"target":34962
		},
		{
			"buffer":0,
			"byteLength":288,
			"byteOffset":65344,
			"target":34962
		},
		{
			"buffer":0,
			"byteLength":192,
			"byteOffset":65632,
			"target":34962
		},
		{
			"buffer":0,
			"byteLength":72,
			"byteOffset":65824,
			"target":34963
		}
	],
	"samplers":[
		{
			"magFilter":9729,
			"minFilter":9987
		}
	],
	"buffers":[
		{
			"byteLength":65896,
			"uri":"indicator2_red.bin"
		}
	]
}
